# xmcd
#
# Track frame offsets: 
#        150
#        18807
#        31234
#        43959
#        60235
#        79361
#        92590
#        111004
#        124644
#        141374
#        161184
#        179131
#
# Disc length: 2562 seconds
#
# Revision: 0
# Processed by: cddbd v1.5.2PL0 Copyright (c) Steve Scherf et al.
# Submitted via: ExactAudioCopyFreeDBPlugin 1.0
#
DISCID=9f0a000c
DTITLE=Various Artist - 乡村之路
DYEAR=2018
DGENRE=Country
TTITLE0=尽在不言中
TTITLE1=你带不走我的男人
TTITLE2=只有爸爸会一往无前
TTITLE3=我不是她
TTITLE4=我的男人
TTITLE5=乡村男孩
TTITLE6=银色的翅膀
TTITLE7=有人正在敲门
TTITLE8=直到永远
TTITLE9=漫漫长夜
TTITLE10=茱莲妮
TTITLE11=别碰那台点唱机
EXTD=
EXTT0=
EXTT1=
EXTT2=
EXTT3=
EXTT4=
EXTT5=
EXTT6=
EXTT7=
EXTT8=
EXTT9=
EXTT10=
EXTT11=
PLAYORDER=
